<?xml version="1.0" encoding="utf-8"?>
<!-- Generator: Adobe Illustrator 17.0.0, SVG Export Plug-In . SVG Version: 6.00 Build 0)  -->
<!DOCTYPE svg PUBLIC "-//W3C//DTD SVG 1.1//EN" "http://www.w3.org/Graphics/SVG/1.1/DTD/svg11.dtd">
<svg version="1.1" id="图层_1" xmlns="http://www.w3.org/2000/svg" xmlns:xlink="http://www.w3.org/1999/xlink" x="0px" y="0px"
	 width="60px" height="36px" viewBox="0 0 60 36" enable-background="new 0 0 60 36" xml:space="preserve">
<g>
	<path fill="#FFFFFF" d="M11.063,35.5c-2.481,0-4.5-2.019-4.5-4.5V11c0-2.481,2.019-4.5,4.5-4.5s4.5,2.019,4.5,4.5v20
		C15.563,33.481,13.545,35.5,11.063,35.5z"/>
	<path d="M11.063,7c2.206,0,4,1.794,4,4v20c0,2.206-1.794,4-4,4s-4-1.794-4-4V11C7.063,8.794,8.858,7,11.063,7 M11.063,6
		c-2.761,0-5,2.239-5,5v20c0,2.761,2.239,5,5,5s5-2.239,5-5V11C16.063,8.239,13.825,6,11.063,6L11.063,6z"/>
</g>
<g>
	<rect x="10.562" y="0.507" width="1.004" height="5.64"/>
</g>
<g>
	<rect x="7.063" width="8" height="1"/>
</g>
<g>
	<rect y="20.303" width="6.523" height="1.004"/>
</g>
<g>
	<rect y="16.805" width="1" height="8"/>
</g>
<g>
	<path fill="#FFFFFF" d="M35,25.364c-2.481,0-4.5-2.019-4.5-4.5s2.019-4.5,4.5-4.5h20c2.481,0,4.5,2.019,4.5,4.5s-2.019,4.5-4.5,4.5
		H35z"/>
	<path d="M55,16.864c2.206,0,4,1.794,4,4s-1.794,4-4,4H35c-2.206,0-4-1.794-4-4s1.794-4,4-4H55 M55,15.864H35c-2.761,0-5,2.239-5,5
		s2.239,5,5,5h20c2.761,0,5-2.239,5-5S57.761,15.864,55,15.864L55,15.864z"/>
</g>
<g>
	<rect x="33.942" y="15.989" width="1.035" height="9.75"/>
</g>
<g>
	<rect x="55.026" y="15.989" width="1.035" height="9.75"/>
</g>
<rect x="15.955" y="19.755" width="14.415" height="2"/>
</svg>
