<?xml version="1.0" encoding="utf-8"?>
<!-- Generator: Adobe Illustrator 17.0.0, SVG Export Plug-In . SVG Version: 6.00 Build 0)  -->
<!DOCTYPE svg PUBLIC "-//W3C//DTD SVG 1.1//EN" "http://www.w3.org/Graphics/SVG/1.1/DTD/svg11.dtd">
<svg version="1.1" id="图层_1" xmlns="http://www.w3.org/2000/svg" xmlns:xlink="http://www.w3.org/1999/xlink" x="0px" y="0px"
	 width="20px" height="40px" viewBox="0 0 20 40" enable-background="new 0 0 20 40" xml:space="preserve">
<g>
	<path fill="#FFFFFF" d="M10,19.5c-5.238,0-9.5-4.262-9.5-9.5S4.762,0.5,10,0.5s9.5,4.262,9.5,9.5S15.238,19.5,10,19.5z"/>
	<path d="M10,1c4.963,0,9,4.037,9,9s-4.037,9-9,9s-9-4.037-9-9S5.037,1,10,1 M10,0C4.477,0,0,4.477,0,10s4.477,10,10,10
		s10-4.477,10-10S15.523,0,10,0L10,0z"/>
</g>
<g>
	<path fill="#FFFFFF" d="M10,39.5c-5.238,0-9.5-4.262-9.5-9.5s4.262-9.5,9.5-9.5s9.5,4.262,9.5,9.5S15.238,39.5,10,39.5z"/>
	<path d="M10,21c4.963,0,9,4.037,9,9s-4.037,9-9,9s-9-4.037-9-9S5.037,21,10,21 M10,20C4.477,20,0,24.477,0,30s4.477,10,10,10
		s10-4.477,10-10S15.523,20,10,20L10,20z"/>
</g>
<g>
	<rect y="19.5" width="20" height="1"/>
</g>
</svg>
