<?xml version="1.0" encoding="utf-8"?>
<!-- Generator: Adobe Illustrator 17.0.0, SVG Export Plug-In . SVG Version: 6.00 Build 0)  -->
<!DOCTYPE svg PUBLIC "-//W3C//DTD SVG 1.1//EN" "http://www.w3.org/Graphics/SVG/1.1/DTD/svg11.dtd">
<svg version="1.1" id="图层_1" xmlns="http://www.w3.org/2000/svg" xmlns:xlink="http://www.w3.org/1999/xlink" x="0px" y="0px"
	 width="30px" height="60px" viewBox="0 0 30 60" enable-background="new 0 0 30 60" xml:space="preserve">
<g>
	<path fill="#FFFFFF" d="M15,30.881c-5.117,0-9.439-2.143-9.439-4.68V5.24c0-2.537,4.323-4.68,9.439-4.68
		c5.116,0,9.439,2.143,9.439,4.68v20.961C24.439,28.738,20.116,30.881,15,30.881z"/>
	<path d="M15,1.121c5.232,0,8.879,2.171,8.879,4.119v20.961c0,1.948-3.646,4.119-8.879,4.119s-8.879-2.171-8.879-4.119V5.24
		C6.121,3.292,9.768,1.121,15,1.121 M15,0C9.477,0,5,2.346,5,5.24v20.961c0,2.894,4.477,5.24,10,5.24s10-2.346,10-5.24V5.24
		C25,2.346,20.523,0,15,0L15,0z"/>
</g>
<g>
	<path fill="#FFFFFF" d="M5,56.307c-2.481,0-4.5-2.019-4.5-4.5s2.019-4.5,4.5-4.5h20c2.481,0,4.5,2.019,4.5,4.5s-2.019,4.5-4.5,4.5
		H5z"/>
	<path d="M25,47.806c2.206,0,4,1.794,4,4s-1.794,4-4,4H5c-2.206,0-4-1.794-4-4s1.794-4,4-4H25 M25,46.806H5c-2.761,0-5,2.239-5,5
		s2.239,5,5,5h20c2.761,0,5-2.239,5-5S27.761,46.806,25,46.806L25,46.806z"/>
</g>
<g>
	<rect x="5.194" y="25.4" width="19.612" height="1"/>
</g>
<g>
	<rect x="17.232" y="32.102" width="11.351" height="0.93"/>
</g>
<g>
	<rect x="21.324" y="32.725" width="1" height="14.108"/>
</g>
<g>
	<rect x="28.074" y="32.083" width="1.018" height="16.971"/>
</g>
<rect x="13.027" y="30.6" fill="#FFFFFF" stroke="#000000" stroke-width="0.9941" stroke-miterlimit="10" width="4" height="16.591"/>
<g>
	<rect x="8.471" y="56.457" fill="#FFFFFF" width="13.059" height="3.086"/>
	<path d="M21.072,56.914v2.172H8.928v-2.172H21.072 M21.986,56H8.014v4h13.973V56L21.986,56z"/>
</g>
<g>
	<rect x="5.194" y="4.483" width="19.612" height="1"/>
</g>
<rect x="1.25" y="35.921" width="27.333" height="2"/>
</svg>
