<?xml version="1.0" encoding="utf-8"?>
<!-- Generator: Adobe Illustrator 17.0.0, SVG Export Plug-In . SVG Version: 6.00 Build 0)  -->
<!DOCTYPE svg PUBLIC "-//W3C//DTD SVG 1.1//EN" "http://www.w3.org/Graphics/SVG/1.1/DTD/svg11.dtd">
<svg version="1.1" id="图层_1" xmlns="http://www.w3.org/2000/svg" xmlns:xlink="http://www.w3.org/1999/xlink" x="0px" y="0px"
	 width="40px" height="54px" viewBox="0 0 40 54" enable-background="new 0 0 40 54" xml:space="preserve">
<g>
	<path fill="#FFFFFF" d="M34.5,49c0,2.481-2.019,4.5-4.5,4.5H10c-2.481,0-4.5-2.019-4.5-4.5s2.019-4.5,4.5-4.5h20
		C32.481,44.5,34.5,46.519,34.5,49z"/>
	<path d="M6,49c0-2.206,1.794-4,4-4h20c2.206,0,4,1.794,4,4c0,2.206-1.794,4-4,4H10C7.794,53,6,51.206,6,49 M5,49
		c0,2.761,2.239,5,5,5h20c2.761,0,5-2.239,5-5s-2.239-5-5-5H10C7.239,44,5,46.239,5,49L5,49z"/>
</g>
<g>
	<g>
		<rect x="0.507" y="48.393" width="4.89" height="1.004"/>
	</g>
	<g>
		<rect y="44.895" width="1" height="8"/>
	</g>
</g>
<g>
	<g>
		<rect x="34.602" y="48.393" width="4.89" height="1.004"/>
	</g>
	<g>
		<rect x="39" y="44.895" width="1" height="8"/>
	</g>
</g>
<g>
	<path fill="#FFFFFF" d="M24.5,25c0,2.481-2.019,4.5-4.5,4.5s-4.5-2.019-4.5-4.5V5c0-2.481,2.019-4.5,4.5-4.5s4.5,2.019,4.5,4.5V25z
		"/>
	<path d="M16,5c0-2.206,1.794-4,4-4s4,1.794,4,4v20c0,2.206-1.794,4-4,4s-4-1.794-4-4V5 M15,5v20c0,2.761,2.239,5,5,5s5-2.239,5-5V5
		c0-2.761-2.239-5-5-5C17.239,0,15,2.239,15,5L15,5z"/>
</g>
<g>
	<rect x="15.125" y="24.981" width="9.75" height="1.035"/>
</g>
<g>
	<rect x="15.125" y="3.897" width="9.75" height="1.035"/>
</g>
<rect x="19" y="29.588" width="2" height="14.415"/>
</svg>
